<mxfile host="app.diagrams.net" modified="2023-10-24T19:26:36.134Z" agent="Mozilla/5.0 (Windows NT 10.0; Win64; x64) AppleWebKit/537.36 (KHTML, like Gecko) Chrome/118.0.0.0 Safari/537.36" etag="zIjk-Yj853OGtLyaU-9w" version="22.0.7" type="device">
  <diagram name="PÃ¡gina-1" id="MM8Igp0BLpp5QlD6cQMo">
    <mxGraphModel dx="1434" dy="828" grid="1" gridSize="10" guides="1" tooltips="1" connect="1" arrows="1" fold="1" page="1" pageScale="1" pageWidth="827" pageHeight="1169" math="0" shadow="0">
      <root>
        <mxCell id="0" />
        <mxCell id="1" parent="0" />
      </root>
    </mxGraphModel>
  </diagram>
</mxfile>
